<svg class="l" id="Layer_1" data-name="Layer 1" xmlns="http://www.w3.org/2000/svg" viewBox="0 0 865.11 291.36"><defs><style>.cls-1{fill:#58595b;}.cls-2{fill:#30c0d2;}.cls-3{fill:#a9dde4;}.cls-4{fill:#a3678c;}.cls-5{fill:#85c559;}.cls-6{fill:#a6d05d;}.cls-7{fill:#ed5f87;}.cls-8{fill:#d874ae;}.cls-9{fill:#934289;}.cls-10{fill:#90d4ee;}</style></defs><title>706</title><path class="cls-1" d="M282.58,125.47c0-17,12.64-28.68,28.76-28.68,10.56,0,17.37,5.24,21.7,11.72L326,112.25a17.43,17.43,0,0,0-14.63-8.06c-11.56,0-20.2,8.81-20.2,21.28s8.65,21.28,20.2,21.28A17.42,17.42,0,0,0,326,138.69l7.07,3.74c-4.41,6.48-11.14,11.72-21.7,11.72C295.21,154.15,282.58,142.51,282.58,125.47Z" transform="translate(-18 -34.32)"/><path class="cls-1" d="M338.27,102.86a4.81,4.81,0,0,1,4.82-4.74,4.76,4.76,0,0,1,4.82,4.74,4.83,4.83,0,0,1-4.82,4.82A4.88,4.88,0,0,1,338.27,102.86ZM339.44,113h7.48v40.15h-7.48Z" transform="translate(-18 -34.32)"/><path class="cls-1" d="M384.16,127.46c0-6.65-3.41-8.81-8.56-8.81a14.34,14.34,0,0,0-11.06,5.82v28.68h-7.48V113h7.48v5.65A19.15,19.15,0,0,1,378.76,112c8.48,0,12.89,4.49,12.89,13v28.18h-7.48Z" transform="translate(-18 -34.32)"/><path class="cls-1" d="M419.74,112c7.57,0,12.14,3.16,15,7.07l-5,4.57a11.21,11.21,0,0,0-9.73-5c-7.9,0-13,6.07-13,14.38s5.07,14.47,13,14.47a11.41,11.41,0,0,0,9.73-5l5,4.57c-2.91,3.91-7.48,7.07-15,7.07-12.14,0-20.45-9.06-20.45-21.12S407.61,112,419.74,112Z" transform="translate(-18 -34.32)"/><path class="cls-1" d="M440.11,102.86a4.81,4.81,0,0,1,4.82-4.74,4.75,4.75,0,0,1,4.82,4.74,4.83,4.83,0,0,1-4.82,4.82A4.88,4.88,0,0,1,440.11,102.86ZM441.28,113h7.48v40.15h-7.48Z" transform="translate(-18 -34.32)"/><path class="cls-1" d="M486,127.46c0-6.65-3.41-8.81-8.56-8.81a14.34,14.34,0,0,0-11.06,5.82v28.68H458.9V113h7.48v5.65A19.15,19.15,0,0,1,480.59,112c8.48,0,12.89,4.49,12.89,13v28.18H486Z" transform="translate(-18 -34.32)"/><path class="cls-1" d="M530.72,127.46c0-6.65-3.41-8.81-8.56-8.81a14.35,14.35,0,0,0-11.06,5.82v28.68h-7.48V113h7.48v5.65A19.15,19.15,0,0,1,525.32,112c8.48,0,12.89,4.49,12.89,13v28.18h-7.48Z" transform="translate(-18 -34.32)"/><path class="cls-1" d="M576.95,147.42a16.61,16.61,0,0,1-13.13,6.73c-10.47,0-18-7.9-18-21,0-12.88,7.48-21.11,18-21.11a16.36,16.36,0,0,1,13.13,6.82V113h7.48v40.15h-7.48Zm0-22.78a13.88,13.88,0,0,0-11.14-5.9c-7.48,0-12.14,6-12.14,14.38s4.66,14.38,12.14,14.38a13.81,13.81,0,0,0,11.14-5.82Z" transform="translate(-18 -34.32)"/><path class="cls-1" d="M596.15,144.26V119.57H589.5V113h6.65V102h7.48v11h8.15v6.57h-8.15v23c0,2.83,1.33,4.9,3.91,4.9a5.76,5.76,0,0,0,4.07-1.58l1.91,5.65c-1.58,1.5-3.91,2.58-7.81,2.58C599.39,154.15,596.15,150.57,596.15,144.26Z" transform="translate(-18 -34.32)"/><path class="cls-1" d="M617.18,102.86A4.81,4.81,0,0,1,622,98.12a4.75,4.75,0,0,1,4.82,4.74,4.82,4.82,0,0,1-4.82,4.82A4.88,4.88,0,0,1,617.18,102.86ZM618.34,113h7.48v40.15h-7.48Z" transform="translate(-18 -34.32)"/><path class="cls-1" d="M287.05,221.7c0-28.63,21.37-48.19,48.88-48.19,18.86,0,30.45,9.78,37.43,21l-14,7.12A27.66,27.66,0,0,0,335.94,188c-18.44,0-32.12,14.11-32.12,33.66s13.69,33.66,32.12,33.66a27.36,27.36,0,0,0,23.46-13.55l14,7.12c-7.12,11.17-18.58,21-37.43,21C308.42,269.88,287.05,250.33,287.05,221.7Z" transform="translate(-18 -34.32)"/><path class="cls-1" d="M427.55,225.75c0-10.48-5.45-13.69-13.69-13.69-7.4,0-13.83,4.47-17.32,9.08v47.07H381.88V175h14.67V210a32.24,32.24,0,0,1,23.88-10.89c14.53,0,21.79,7.54,21.79,21.37v47.77H427.55Z" transform="translate(-18 -34.32)"/><path class="cls-1" d="M455.21,183.43a9.08,9.08,0,1,1,9.08,9.08A9.15,9.15,0,0,1,455.21,183.43ZM457,200.75h14.67v67.46H457Z" transform="translate(-18 -34.32)"/><path class="cls-1" d="M486.49,252.56V175h14.66v73.88c0,4.61,2.24,8,6.42,8a9.09,9.09,0,0,0,6.43-2.37l3.49,11c-2.65,2.51-7,4.33-13.69,4.33C492.36,269.88,486.49,263.74,486.49,252.56Z" transform="translate(-18 -34.32)"/><path class="cls-1" d="M569.59,259a27.32,27.32,0,0,1-21.65,10.89c-17.32,0-30-13.13-30-35.34,0-21.79,12.57-35.48,30-35.48a27.06,27.06,0,0,1,21.65,11V175h14.67v93.16H569.59Zm0-37.85c-3.35-5-10.48-9.08-17.46-9.08-11.59,0-19,9.36-19,22.49s7.4,22.35,19,22.35c7,0,14.11-3.91,17.46-8.94Z" transform="translate(-18 -34.32)"/><path class="cls-1" d="M599.06,200.75h14.66v9.92c5-6.43,13.13-11.45,21.93-11.45v14.53a21.59,21.59,0,0,0-4.61-.42c-6.15,0-14.39,4.19-17.32,8.94v46H599.06Z" transform="translate(-18 -34.32)"/><path class="cls-1" d="M673.36,199.07c20.25,0,33.24,15.5,33.24,36.73v3.49H654.5c1.12,10.2,8.8,18.58,21.51,18.58,6.56,0,14.39-2.65,19.13-7.4l6.7,9.64c-6.7,6.43-16.62,9.78-27.37,9.78-20.25,0-35.34-14.11-35.34-35.48C639.14,214.85,653.38,199.07,673.36,199.07Zm-19,29.89h38c-.28-8-5.73-17.88-19-17.88C660.79,211.08,655.06,220.72,654.36,229Z" transform="translate(-18 -34.32)"/><path class="cls-1" d="M762.46,226c0-10.48-5.31-14-13.55-14-7.54,0-14,4.47-17.32,9.08v47.07H716.93V200.75h14.66V210a31.93,31.93,0,0,1,23.75-10.89c14.53,0,21.79,7.82,21.79,21.65v47.49H762.46Z" transform="translate(-18 -34.32)"/><path class="cls-1" d="M784.8,203c4.47-2.79,8.8-8.52,9.5-13.13a6.86,6.86,0,0,1-2.1.42c-4.33,0-7.54-3.35-7.54-8a8.58,8.58,0,0,1,8.52-8.66c5.17,0,9.78,4.19,9.78,11.59,0,9.22-5.17,17.6-12.29,22.49Z" transform="translate(-18 -34.32)"/><path class="cls-1" d="M807.71,248.79c4.75,4.89,14.11,9.5,22.91,9.5s13.27-3.77,13.27-9.08c0-5.59-7.12-7.12-15.36-8.94-11.59-2.51-25.42-5.59-25.42-20.67,0-11,9.5-20.53,26.54-20.53,11.45,0,20.11,4.05,26.26,9.5l-6.14,10.33c-4.05-4.61-11.59-8.1-20-8.1-7.68,0-12.57,3.49-12.57,8.24s6.7,6.29,14.66,8.1C843.6,229.66,858,233,858,248.93c0,11.87-9.91,21-28.07,21-11.45,0-21.93-3.63-28.91-10.47Z" transform="translate(-18 -34.32)"/><path class="cls-2" d="M304.31,299.18a8.61,8.61,0,0,1,7.32,3.34l-3.18,3a4.49,4.49,0,0,0-3.91-2c-3,0-5,2.15-5,5.37s2.07,5.41,5,5.41a4.68,4.68,0,0,0,3.91-2l3.18,3c-1.23,1.73-3.53,3.38-7.32,3.38a9.72,9.72,0,1,1,0-19.44Z" transform="translate(-18 -34.32)"/><path class="cls-2" d="M327.94,306.89c0-2.57-1.34-3.37-3.45-3.37a5.39,5.39,0,0,0-4.22,2.19v12.46H315.4V292.59h4.87v9.47a8.57,8.57,0,0,1,6.52-2.88c4.06,0,6,2.23,6,5.83v13.15h-4.87Z" transform="translate(-18 -34.32)"/><path class="cls-2" d="M350.95,315.79a7.19,7.19,0,0,1-5.71,2.84c-4.68,0-8.2-3.53-8.2-9.7s3.49-9.74,8.2-9.74a7.06,7.06,0,0,1,5.68,2.84v-2.38h4.95v18.52h-4.91Zm0-10.12a5.3,5.3,0,0,0-4.22-2.11c-2.76,0-4.68,2.15-4.68,5.37s1.92,5.37,4.68,5.37a5.3,5.3,0,0,0,4.22-2.11Z" transform="translate(-18 -34.32)"/><path class="cls-2" d="M373.77,307c0-2.57-1.34-3.45-3.41-3.45a5.27,5.27,0,0,0-4.22,2.19v12.46h-4.87V299.65h4.87v2.41a8.48,8.48,0,0,1,6.48-2.88c4.06,0,6,2.3,6,5.91v13.08h-4.87Z" transform="translate(-18 -34.32)"/><path class="cls-2" d="M385.85,319.39a7.37,7.37,0,0,0,5.79,2.3c2.34,0,5.1-1,5.1-4.68v-1.88a7.21,7.21,0,0,1-5.71,2.91c-4.64,0-8.17-3.26-8.17-9.43s3.49-9.43,8.17-9.43a7.13,7.13,0,0,1,5.71,2.84v-2.38h4.91V316.9c0,7.06-5.44,8.78-10,8.78a11.22,11.22,0,0,1-8-2.76Zm10.89-13.77a5.28,5.28,0,0,0-4.18-2.11c-2.76,0-4.68,1.92-4.68,5.1s1.92,5.1,4.68,5.1a5.39,5.39,0,0,0,4.18-2.11Z" transform="translate(-18 -34.32)"/><path class="cls-2" d="M406.56,294.74a2.91,2.91,0,1,1,2.92,2.91A2.94,2.94,0,0,1,406.56,294.74Zm.5,4.91h4.87v18.52h-4.87Z" transform="translate(-18 -34.32)"/><path class="cls-2" d="M429.84,307c0-2.57-1.34-3.45-3.41-3.45a5.27,5.27,0,0,0-4.22,2.19v12.46h-4.87V299.65h4.87v2.41a8.48,8.48,0,0,1,6.48-2.88c4.06,0,6,2.3,6,5.91v13.08h-4.87Z" transform="translate(-18 -34.32)"/><path class="cls-2" d="M441.92,319.39a7.35,7.35,0,0,0,5.79,2.3c2.34,0,5.1-1,5.1-4.68v-1.88a7.21,7.21,0,0,1-5.71,2.91c-4.64,0-8.17-3.26-8.17-9.43s3.49-9.43,8.17-9.43a7.13,7.13,0,0,1,5.71,2.84v-2.38h4.91V316.9c0,7.06-5.44,8.78-10,8.78a11.22,11.22,0,0,1-8-2.76Zm10.89-13.77a5.28,5.28,0,0,0-4.18-2.11c-2.76,0-4.68,1.92-4.68,5.1s1.91,5.1,4.68,5.1a5.4,5.4,0,0,0,4.18-2.11Z" transform="translate(-18 -34.32)"/><path class="cls-2" d="M474.48,313.57V303.9h-3.07v-4.25h3.07v-5.06h4.91v5.06h3.76v4.25h-3.76v8.36c0,1.15.61,2,1.69,2a2.67,2.67,0,0,0,1.69-.54l1,3.68a6,6,0,0,1-4.07,1.19C476.32,318.63,474.48,316.86,474.48,313.57Z" transform="translate(-18 -34.32)"/><path class="cls-2" d="M499.59,306.89c0-2.57-1.34-3.37-3.45-3.37a5.39,5.39,0,0,0-4.22,2.19v12.46h-4.87V292.59h4.87v9.47a8.57,8.57,0,0,1,6.52-2.88c4.06,0,6,2.23,6,5.83v13.15h-4.87Z" transform="translate(-18 -34.32)"/><path class="cls-2" d="M518.27,299.18c5.52,0,9.28,4.14,9.28,10.2v1.07H513.79c.31,2.34,2.19,4.3,5.33,4.3a7.57,7.57,0,0,0,4.95-1.84l2.15,3.14a11.54,11.54,0,0,1-7.63,2.57c-5.63,0-9.89-3.8-9.89-9.74A9.43,9.43,0,0,1,518.27,299.18Zm-4.56,8h9.13a4.29,4.29,0,0,0-4.56-4.1A4.45,4.45,0,0,0,513.71,307.16Z" transform="translate(-18 -34.32)"/><path class="cls-2" d="M540.86,308.89a9.8,9.8,0,1,1,9.78,9.74A9.38,9.38,0,0,1,540.86,308.89Zm14.53,0c0-2.87-1.73-5.37-4.76-5.37s-4.72,2.49-4.72,5.37,1.69,5.41,4.72,5.41S555.4,311.8,555.4,308.89Z" transform="translate(-18 -34.32)"/><path class="cls-2" d="M577.14,315.83a8.67,8.67,0,0,1-6.52,2.8c-4.07,0-6-2.22-6-5.83V299.65h4.87v11.23c0,2.57,1.34,3.41,3.41,3.41a5.45,5.45,0,0,0,4.22-2.11V299.65H582v18.52h-4.87Z" transform="translate(-18 -34.32)"/><path class="cls-2" d="M588.38,313.57V303.9h-3.07v-4.25h3.07v-5.06h4.91v5.06H597v4.25h-3.76v8.36c0,1.15.62,2,1.69,2a2.67,2.67,0,0,0,1.69-.54l1,3.68a6,6,0,0,1-4.07,1.19C590.22,318.63,588.38,316.86,588.38,313.57Z" transform="translate(-18 -34.32)"/><path class="cls-2" d="M609.59,299.18a8.61,8.61,0,0,1,7.32,3.34l-3.18,3a4.49,4.49,0,0,0-3.91-2c-3,0-5,2.15-5,5.37s2.07,5.41,5,5.41a4.67,4.67,0,0,0,3.91-2l3.18,3c-1.23,1.73-3.53,3.38-7.32,3.38a9.72,9.72,0,1,1,0-19.44Z" transform="translate(-18 -34.32)"/><path class="cls-2" d="M619.48,308.89a9.8,9.8,0,1,1,9.78,9.74A9.38,9.38,0,0,1,619.48,308.89Zm14.53,0c0-2.87-1.73-5.37-4.76-5.37s-4.72,2.49-4.72,5.37,1.69,5.41,4.72,5.41S634,311.8,634,308.89Z" transform="translate(-18 -34.32)"/><path class="cls-2" d="M666.23,306.47c0-1.72-.77-3-2.76-3a4.92,4.92,0,0,0-3.83,2.15v12.5h-4.91v-11.7c0-1.72-.77-3-2.76-3a5,5,0,0,0-3.83,2.19v12.46h-4.87V299.65h4.87v2.41a8.11,8.11,0,0,1,6.06-2.88c2.72,0,4.45,1.27,5.14,3.37a7.86,7.86,0,0,1,6.37-3.37c3.41,0,5.44,1.8,5.44,5.6v13.38h-4.91Z" transform="translate(-18 -34.32)"/><path class="cls-2" d="M684.91,299.18c5.52,0,9.28,4.14,9.28,10.2v1.07H680.42c.31,2.34,2.19,4.3,5.33,4.3a7.57,7.57,0,0,0,4.95-1.84l2.15,3.14a11.54,11.54,0,0,1-7.63,2.57c-5.63,0-9.89-3.8-9.89-9.74A9.43,9.43,0,0,1,684.91,299.18Zm-4.56,8h9.13a4.29,4.29,0,0,0-4.56-4.1A4.45,4.45,0,0,0,680.35,307.16Z" transform="translate(-18 -34.32)"/><path class="cls-2" d="M709.65,313.57V303.9h-3.07v-4.25h3.07v-5.06h4.91v5.06h3.76v4.25h-3.76v8.36c0,1.15.62,2,1.69,2a2.66,2.66,0,0,0,1.69-.54l1,3.68a6,6,0,0,1-4.07,1.19C711.49,318.63,709.65,316.86,709.65,313.57Z" transform="translate(-18 -34.32)"/><path class="cls-2" d="M721,308.89a9.8,9.8,0,1,1,9.78,9.74A9.38,9.38,0,0,1,721,308.89Zm14.53,0c0-2.87-1.73-5.37-4.76-5.37s-4.72,2.49-4.72,5.37,1.69,5.41,4.72,5.41S735.57,311.8,735.57,308.89Z" transform="translate(-18 -34.32)"/><path class="cls-2" d="M746.62,319.39a7.36,7.36,0,0,0,5.79,2.3c2.34,0,5.1-1,5.1-4.68v-1.88a7.21,7.21,0,0,1-5.71,2.91c-4.64,0-8.17-3.26-8.17-9.43s3.49-9.43,8.17-9.43A7.12,7.12,0,0,1,757.5,302v-2.38h4.91V316.9c0,7.06-5.44,8.78-10,8.78a11.22,11.22,0,0,1-8-2.76Zm10.89-13.77a5.27,5.27,0,0,0-4.18-2.11c-2.76,0-4.68,1.92-4.68,5.1s1.91,5.1,4.68,5.1a5.39,5.39,0,0,0,4.18-2.11Z" transform="translate(-18 -34.32)"/><path class="cls-2" d="M776.22,299.18c5.52,0,9.28,4.14,9.28,10.2v1.07H771.74c.31,2.34,2.19,4.3,5.33,4.3a7.58,7.58,0,0,0,4.95-1.84l2.15,3.14a11.54,11.54,0,0,1-7.63,2.57c-5.63,0-9.89-3.8-9.89-9.74A9.43,9.43,0,0,1,776.22,299.18Zm-4.56,8h9.13a4.29,4.29,0,0,0-4.56-4.1A4.45,4.45,0,0,0,771.66,307.16Z" transform="translate(-18 -34.32)"/><path class="cls-2" d="M790.57,313.57V303.9H787.5v-4.25h3.07v-5.06h4.91v5.06h3.76v4.25h-3.76v8.36c0,1.15.62,2,1.69,2a2.66,2.66,0,0,0,1.69-.54l1,3.68a6,6,0,0,1-4.07,1.19C792.41,318.63,790.57,316.86,790.57,313.57Z" transform="translate(-18 -34.32)"/><path class="cls-2" d="M815.68,306.89c0-2.57-1.34-3.37-3.45-3.37a5.39,5.39,0,0,0-4.22,2.19v12.46h-4.87V292.59H808v9.47a8.57,8.57,0,0,1,6.52-2.88c4.06,0,6,2.23,6,5.83v13.15h-4.87Z" transform="translate(-18 -34.32)"/><path class="cls-2" d="M834.36,299.18c5.52,0,9.28,4.14,9.28,10.2v1.07H829.88c.31,2.34,2.18,4.3,5.33,4.3a7.56,7.56,0,0,0,4.95-1.84l2.15,3.14a11.53,11.53,0,0,1-7.63,2.57c-5.64,0-9.89-3.8-9.89-9.74A9.43,9.43,0,0,1,834.36,299.18Zm-4.56,8h9.12a4.29,4.29,0,0,0-4.56-4.1A4.45,4.45,0,0,0,829.8,307.16Z" transform="translate(-18 -34.32)"/><path class="cls-2" d="M847.75,299.65h4.87v2.53a7.91,7.91,0,0,1,5.9-3V304a6,6,0,0,0-1.34-.16,6.2,6.2,0,0,0-4.56,2.11v12.23h-4.87Z" transform="translate(-18 -34.32)"/><path class="cls-3" d="M194.43,73.59a115.76,115.76,0,0,1-23.91,28.23A61.91,61.91,0,0,1,207.85,113a23.16,23.16,0,1,1,25.07,38.42,61.93,61.93,0,0,1-3.75,36.28,89.47,89.47,0,0,1,35.28-14.37,92.51,92.51,0,0,0-70-99.7Z" transform="translate(-18 -34.32)"/><path class="cls-3" d="M28,108.85a155.09,155.09,0,0,0-9.7,64.68A161.66,161.66,0,0,1,82.64,140.7a93.07,93.07,0,0,1,3.58-11.13,116.6,116.6,0,0,1-23.37-4.13A115.92,115.92,0,0,1,28,108.85Z" transform="translate(-18 -34.32)"/><path class="cls-4" d="M43.11,247.89a154,154,0,0,0,113.33,69.17,144.17,144.17,0,0,0,28.22-53.29q1.25-4.38,2.2-8.77a93,93,0,0,1-56.46-8.92,46.3,46.3,0,0,1-50.5-77.37,93.1,93.1,0,0,1,2.73-28,161.66,161.66,0,0,0-64.33,32.83A153.63,153.63,0,0,0,43.11,247.89Z" transform="translate(-18 -34.32)"/><path class="cls-5" d="M42.93,79.37A154.14,154.14,0,0,0,28,108.85a115.92,115.92,0,0,0,34.84,16.59,116.6,116.6,0,0,0,23.37,4.13,92,92,0,0,1,24.16-34.85A145.46,145.46,0,0,0,42.93,79.37Z" transform="translate(-18 -34.32)"/><path class="cls-6" d="M85.17,84.92a145.38,145.38,0,0,1,25.21,9.8A93.26,93.26,0,0,1,121.66,86L87.91,34.32a153.79,153.79,0,0,0-45,45.05A144.66,144.66,0,0,1,85.17,84.92Z" transform="translate(-18 -34.32)"/><path class="cls-6" d="M194.43,73.59A92.48,92.48,0,0,0,136,78.37l17.26,26.45a61.39,61.39,0,0,1,17.29-3A115.76,115.76,0,0,0,194.43,73.59Z" transform="translate(-18 -34.32)"/><path class="cls-7" d="M247.28,218a92.84,92.84,0,0,0,17.16-44.65,89.47,89.47,0,0,0-35.28,14.37,61.81,61.81,0,0,1-3.63,7.21,61.16,61.16,0,0,1-7.13,9.8l17.27,26.45A91.92,91.92,0,0,0,247.28,218Z" transform="translate(-18 -34.32)"/><path class="cls-7" d="M222.89,241.14q-2.6,1.7-5.27,3.19a92,92,0,0,1-26.91,10q-1.92.39-3.84.69-1,4.39-2.2,8.77a144.17,144.17,0,0,1-28.22,53.29,153.74,153.74,0,0,0,100.21-24.2l-29.51-45.21Z" transform="translate(-18 -34.32)"/><path class="cls-8" d="M130.41,246.08c.89-.5,1.77-1,2.63-1.58a46.31,46.31,0,1,0-50.62-77.56c-.87.56-1.7,1.16-2.51,1.77a92.52,92.52,0,0,0,50.5,77.37Z" transform="translate(-18 -34.32)"/><path class="cls-9" d="M69,231a46.3,46.3,0,0,0,61.46,15,92.52,92.52,0,0,1-50.5-77.37A46.31,46.31,0,0,0,69,231Z" transform="translate(-18 -34.32)"/><path class="cls-10" d="M207.85,113a23.13,23.13,0,0,0,25.07,38.42A61.92,61.92,0,0,0,207.85,113Z" transform="translate(-18 -34.32)"/><path class="cls-2" d="M242.3,117.88a23,23,0,0,0-34.45-4.9,61.92,61.92,0,0,1,25.07,38.42,23,23,0,0,0,9.39-33.52Z" transform="translate(-18 -34.32)"/><path class="cls-1" d="M867.55,206.23h-1.4v-9.68h-3.09v-1.3h7.58v1.3h-3.1Zm14.17-9.08L878,206.23h-.4l-3.74-9.08v9.08h-1.4v-11h2.14l3.19,8,3.19-8h2.14v11h-1.4Z" transform="translate(-18 -34.32)"/></svg>
